<svg width="512" height="512" viewBox="0 0 512 512" fill="none" xmlns="http://www.w3.org/2000/svg" xmlns:xlink="http://www.w3.org/1999/xlink" class=""><rect id="_r_r_" width="512" height="512" x="0" y="0" rx="128" fill="url(#_r_s_)" stroke="#FFFFFF" stroke-width="0" stroke-opacity="100%" paint-order="stroke"></rect><clipPath id="clip"><use xlink:href="#_r_r_"></use></clipPath><defs><linearGradient id="_r_s_" gradientUnits="userSpaceOnUse" gradientTransform="rotate(180)" style="transform-origin: center center;"><stop stop-color="#68AEFF"></stop><stop offset="1" stop-color="#003EB7"></stop></linearGradient><radialGradient id="_r_t_" cx="0" cy="0" r="1" gradientUnits="userSpaceOnUse" gradientTransform="translate(256) rotate(90) scale(512)"><stop stop-color="white"></stop><stop offset="1" stop-color="white" stop-opacity="0"></stop></radialGradient></defs><svg xmlns="http://www.w3.org/2000/svg" fill="none" viewBox="0 0 16 16" width="352" height="352" x="80" y="80" alignment-baseline="middle" style="color: rgb(255, 255, 255); width: 352px; height: 352px;"><path fill="currentColor" fill-rule="evenodd" d="M12.415 8.405c.339-.193.69-.385.978-.641.52-.46.468-1.118-.073-1.55-.09-.07-.214-.145-.237-.239-.107-.423-.204-.852.057-1.267.102-.162.18-.338.234-.522.147-.514-.098-.939-.612-1.09-.088-.026-.184-.027-.269-.058-.054-.02-.128-.069-.136-.115-.097-.514-.032-.73.37-.96.19-.108.411-.161.62-.235.08-.028.167-.042.258-.064-.48-.67-1.328-.953-2.17-.744-.66.163-1.135.589-1.563 1.086-.05.059-.14.115-.212.117-.199.004-.242-.144-.207-.3.067-.304.155-.604.236-.912-.376-.01-.663.229-.992.459-.04-.204-.09-.373-.1-.545-.011-.18.017-.361.03-.555-.58.208-1.022.538-1.146 1.186h-.075L7.233.649c-.07.045-.146.08-.206.134-.352.314-.568.7-.608 1.177-.005.058-.047.157-.078.16a.272.272 0 0 1-.184-.077c-.095-.089-.17-.198-.26-.292-.543-.57-1.181-.941-1.995-.892-.615.037-1.14.268-1.493.776.302.114.607.197.881.34.344.18.424.436.386.81-.022.209-.12.255-.3.283-.623.098-.92.578-.736 1.18.038.124.078.26.157.357.285.35.222.747.185 1.145a.6.6 0 0 1-.258.439c-.628.486-.644 1.165-.022 1.668.254.206.545.373.838.523.399.206.557.535.555.957 0 .346-.016.692-.036 1.038-.014.245-.046.49-.07.735l-.071.019c-.144-.196-.308-.38-.426-.59-.117-.208-.187-.443-.277-.665-.926.763-.951 2.954.53 3.63.206.094.34.224.454.417a2.424 2.424 0 0 0 1.745 1.201c.081.015.159.047.228.093 1.02.686 2.632.69 3.647.005a.537.537 0 0 1 .204-.094c.853-.135 1.459-.607 1.87-1.352a.395.395 0 0 1 .17-.172c.877-.363 1.302-1.038 1.36-1.964.043-.682-.14-1.287-.66-1.8-.106.522-.336.944-.784 1.277-.022-.644-.062-1.289-.06-1.933.001-.341.184-.6.496-.776Zm-8.4-6.43c.388-.003.905.435.87.801-.014.135-.187.314-.325.36a.297.297 0 0 1-.384-.232c-.02-.105-.034-.211-.053-.316l-.108-.614Zm.967 11.41c-.212-.037-.42-.056-.617-.11-.861-.236-1.342-.845-1.358-1.736-.004-.256.055-.512.088-.768 0-.005.033-.01.049-.006.005 0 .005.027.008.041.434.928 1.263 1.18 2.176 1.265l-.424.789.078.524ZM4.875 6.48v-.578c.375.283.9.562 1.233.948.03.033.061.065.089.1.017.023.03.051.042.075-.439.34-1.364.127-1.364-.545Zm2.424 6.787c-.093.13-.182.265-.28.392-.232.296-.56.315-.837.051-.088-.084-.174-.17-.261-.255l-.047-.047c-.102-.491-.092-.504.436-.508.246-.002.492-.006.737.002.275.008.331.094.252.365Zm2.82.098-.05.09h.001v.001-.001c-.066.072-.13.146-.2.215-.312.317-.654.297-.925-.057-.087-.114-.166-.235-.248-.353-.074-.264-.012-.353.264-.36.284-.005.569-.003.853 0 .384.005.447.103.306.465Zm-.367-6.345.138-.166c.332-.387.735-.665 1.235-.952v.579c0 .658-.908.887-1.373.539Zm3.053 3.856.06-.138c.193.624.21 1.236-.154 1.79-.39.595-.996.802-1.686.845l.064-.514-.412-.785c.862-.098 1.69-.303 2.128-1.198Zm-.967-8.045c-.024.14-.068.237-.236.294-.25.085-.338-.095-.44-.225-.048-.063-.028-.211.009-.301.119-.296.316-.524.64-.61.063-.017.128-.022.167-.028-.05.316-.094.593-.14.87Z" clip-rule="evenodd"></path></svg></svg>